<svg width="164" height="42" fill="none" xmlns="http://www.w3.org/2000/svg"><path d="M27.852 2.692c-12.448 6.505-8.706 17.852-5.28 22.712C-.545 25.404-1.508 36.246.9 41.667H164c-1.111-4.038-11.207-4.3-16.116-3.926-2.667-5.608-10.373-4.953-13.892-3.925 2.778-2.804 5.335-10.319-6.669-17.945-12.003-7.627-29.452-1.122-36.676 3.084 1.574-1.963 3.778-6.393 0-8.412-3.78-2.019-8.8.841-10.837 2.524 1.575-2.524 2.279-8.132-7.502-10.375-9.78-2.243-11.855 5.982-11.67 10.375C54.896 6.898 40.3-3.813 27.852 2.692z" fill="#E5DDCA"/></svg>