<svg width="224" height="57" fill="none" xmlns="http://www.w3.org/2000/svg"><path d="M38.041 3.308c-17.002 8.885-11.89 24.383-7.21 31.021-31.575 0-32.891 14.809-29.602 22.213H224c-1.518-5.515-15.307-5.872-22.011-5.362-3.644-7.66-14.169-6.766-18.976-5.361 3.795-3.83 7.287-14.094-9.108-24.511s-40.228-1.532-50.095 4.213c2.151-2.681 5.161-8.732 0-11.49-5.161-2.757-12.018 1.15-14.801 3.447 2.151-3.447 3.112-11.106-10.246-14.17-13.36-3.064-16.193 8.17-15.94 14.17-7.843-8.425-27.78-23.055-44.782-14.17z" fill="#E5DDCA"/></svg>