<svg width="49" height="49" fill="none" xmlns="http://www.w3.org/2000/svg"><rect x=".806" y=".667" width="47.806" height="47.806" rx="23.903" fill="#E5DDCA"/><path d="M24.709.667C11.505.667.806 11.366.806 24.57c0 13.205 10.699 23.903 23.903 23.903 13.204 0 23.903-10.698 23.903-23.903C48.708 11.366 37.913.667 24.709.667zm5.976 24.77h-3.856v13.88h-5.782v-13.88h-2.7v-4.915h2.7v-3.18c0-2.314 1.06-5.784 5.782-5.784h4.241v4.723h-3.084c-.482 0-1.157.29-1.157 1.35v2.89h4.434l-.578 4.916z" fill="#473321"/></svg>