<svg width="332" height="666" fill="none" xmlns="http://www.w3.org/2000/svg"><path d="M112 642l17.5 11-22 11.5h-52l-21-17.5 15.5-7m62 2l-12.5 9m12.5-9l-1-25 7.5-4.5V609m-19 42l-37-1.5m37 1.5l-1-35.5m-36 34L50 640m12.5 9.5l-1-34.5M50 640v-24l-7.5-7v-5m19 11L45 605.5m16.5 9.5l37 .5m0 0l20-6.5m0 0v-2l-7.5-6.5m0 0l-15 5-32.5-1.5-11-5 7-19.5m51.5 21l-9.5-24L96 552l-3-31h-4m-24 79.5l6-32.5M90 52.5h18.63v-37H90v37z" stroke="#473321" stroke-width="2"/><ellipse rx="2.192" ry="2" transform="matrix(-1 0 0 1 99.315 25.5)" fill="#473321" stroke="#473321"/><ellipse rx="2.192" ry="2" transform="matrix(-1 0 0 1 99.315 42.5)" fill="#473321" stroke="#473321"/><path d="M330 33.5L301.507 59H117.945s0-3.5-2.74-6c-2.739-2.5-6.575-2.5-6.575-2.5v-34s3.836 0 6.575-2.5c2.74-2.5 2.74-6 2.74-6h183.562L330 33.5z" stroke="#473321" stroke-width="2"/><path d="M321.781 33.5L299.315 54H123.108s0-3.175-2.486-5.443c-2.485-2.268-5.964-2.268-5.964-2.268V20.768s3.479 0 5.964-2.268c2.486-2.268 2.486-5.443 2.486-5.443h176.207L321.781 33.5z" stroke="#473321"/><path d="M130.31 25.68c0-.08.032-.176.096-.288.064-.128.192-.192.384-.192h5.568c0 .608-.008 1.096-.024 1.464-.016.368-.056.592-.12.672-.048.08-.16.12-.336.12h-2.904V41.52a.94.94 0 01-.072.312c-.048.112-.16.168-.336.168h-2.256V25.68zm11.56 16.56c-1.104 0-1.96-.24-2.568-.72-.608-.48-1.056-1.344-1.344-2.592-.272-1.248-.408-3.056-.408-5.424 0-2.144.16-3.84.48-5.088.336-1.248.832-2.136 1.488-2.664.672-.528 1.544-.792 2.616-.792s1.912.248 2.52.744c.608.496 1.048 1.352 1.32 2.568.288 1.216.432 2.928.432 5.136 0 2.24-.16 4-.48 5.28-.32 1.28-.808 2.192-1.464 2.736-.64.544-1.504.816-2.592.816zm.144-2.76c.4 0 .704-.2.912-.6.208-.4.352-1.016.432-1.848.08-.848.12-2.024.12-3.528 0-1.552-.032-2.72-.096-3.504-.048-.784-.176-1.36-.384-1.728-.192-.368-.496-.552-.912-.552-.384 0-.688.208-.912.624-.208.4-.36 1.056-.456 1.968-.08.912-.12 2.176-.12 3.792 0 1.36.032 2.416.096 3.168.08.752.216 1.312.408 1.68.208.352.512.528.912.528zm9.556-14.28c1.072 0 1.944.144 2.616.432.672.288 1.184.792 1.536 1.512.352.72.528 1.72.528 3 0 1.984-.432 3.376-1.296 4.176-.848.8-1.936 1.2-3.264 1.2h-.192v6c0 .176-.04.296-.12.36-.08.048-.344.08-.792.096-.432.016-1.016.024-1.752.024V25.68c0-.176.032-.296.096-.36.064-.08.192-.12.384-.12h2.256zm.432 7.848c.416 0 .728-.224.936-.672.208-.448.312-1.304.312-2.568 0-.784-.088-1.36-.264-1.728-.16-.384-.432-.576-.816-.576h-.672v5.544h.504zm10.479 9.192c-1.104 0-1.96-.24-2.568-.72-.608-.48-1.056-1.344-1.344-2.592-.272-1.248-.408-3.056-.408-5.424 0-2.144.16-3.84.48-5.088.336-1.248.832-2.136 1.488-2.664.672-.528 1.544-.792 2.616-.792s1.912.248 2.52.744c.608.496 1.048 1.352 1.32 2.568.288 1.216.432 2.928.432 5.136 0 2.24-.16 4-.48 5.28-.32 1.28-.808 2.192-1.464 2.736-.64.544-1.504.816-2.592.816zm.144-2.76c.4 0 .704-.2.912-.6.208-.4.352-1.016.432-1.848.08-.848.12-2.024.12-3.528 0-1.552-.032-2.72-.096-3.504-.048-.784-.176-1.36-.384-1.728-.192-.368-.496-.552-.912-.552-.384 0-.688.208-.912.624-.208.4-.36 1.056-.456 1.968-.08.912-.12 2.176-.12 3.792 0 1.36.032 2.416.096 3.168.08.752.216 1.312.408 1.68.208.352.512.528.912.528zm7.317 6.288c-.464 0-.808-.016-1.032-.048-.208-.032-.352-.104-.432-.216-.08-.112-.12-.28-.12-.504v-5.496h.456c.416 0 .728-.272.936-.816.224-.544.416-1.752.576-3.624.176-1.888.384-5.016.624-9.384.016-.176.048-.288.096-.336.048-.064.208-.104.48-.12.288-.016.672-.024 1.152-.024h4.848v14.304h1.2V45c0 .224-.04.392-.12.504-.08.112-.232.184-.456.216-.208.032-.552.048-1.032.048a40.558 40.558 0 01-.504-2.04 15.887 15.887 0 01-.216-1.728h-5.712a11.088 11.088 0 01-.24 1.656c-.096.496-.264 1.2-.504 2.112zm4.92-6.264V27.696h-1.368c-.224 3.344-.448 5.912-.672 7.704-.208 1.776-.488 3.144-.84 4.104h2.88zm9.793 2.736c-.96 0-1.728-.216-2.304-.648-.56-.432-.984-1.224-1.272-2.376-.288-1.168-.432-2.856-.432-5.064 0-6.128 1.6-9.192 4.8-9.192.928 0 1.536.128 1.824.384.304.24.456.584.456 1.032 0 .528-.128 1.064-.384 1.608a2.047 2.047 0 00-1.248-.408c-.8 0-1.44.464-1.92 1.392-.48.912-.72 2.568-.72 4.968 0 1.392.064 2.472.192 3.24.128.768.328 1.312.6 1.632.272.304.64.456 1.104.456.8 0 1.424-.12 1.872-.36.24.48.36 1 .36 1.56s-.264 1-.792 1.32c-.512.304-1.224.456-2.136.456zm11.933-.192c-.576 0-1.2-.024-1.872-.072l-.24-4.368c-.048-.864-.144-1.52-.288-1.968-.144-.448-.32-.744-.528-.888-.208-.144-.464-.216-.768-.216h-.264v6.984c0 .176-.04.296-.12.36-.08.048-.344.08-.792.096a51.72 51.72 0 01-1.8.024V25.68c0-.176.04-.288.12-.336.08-.064.336-.104.768-.12a53.942 53.942 0 011.824-.024v6.768h.384c.256 0 .496-.144.72-.432.24-.288.408-.704.504-1.248l.744-4.92a7.838 7.838 0 011.704-.192c.432 0 .728.032.888.096.16.064.24.192.24.384 0 .08-.008.144-.024.192l-.936 4.872c-.224 1.056-.664 1.8-1.32 2.232 1.072.624 1.696 2.064 1.872 4.32l.288 4.224c.016.224-.048.376-.192.456-.144.064-.448.096-.912.096zm13.2-.48c.032.16-.032.28-.192.36-.16.08-.496.12-1.008.12-.56 0-1.072-.016-1.536-.048l-.792-3.84h-3.24l-.696 3.384c-.048.192-.144.328-.288.408-.128.064-.44.096-.936.096-.56 0-1.12-.032-1.68-.096l4.008-16.296c.064-.336.424-.504 1.08-.504.544 0 .968.032 1.272.096l4.008 16.32zm-4.032-5.808l-.48-2.256c-.24-1.152-.448-2.664-.624-4.536-.224 2.032-.44 3.544-.648 4.536l-.48 2.256h2.232zm6.799 1.008c.096-.528.272-.96.528-1.296.256-.352.616-.664 1.08-.936a4.019 4.019 0 01-1.656-1.728c-.384-.768-.576-1.656-.576-2.664 0-1.28.176-2.28.528-3 .368-.72.896-1.224 1.584-1.512.688-.288 1.552-.432 2.592-.432h2.256c.208 0 .336.064.384.192a.607.607 0 01.096.288V42c-.752 0-1.352-.008-1.8-.024-.432-.016-.688-.048-.768-.096-.064-.064-.096-.184-.096-.36v-6.288h-.312c-.528 0-.88.552-1.056 1.656l-.624 4.584a1.205 1.205 0 01-.12.384c-.048.08-.152.136-.312.168s-.424.048-.792.048c-.56 0-1.136-.024-1.728-.072l.792-5.232zm3.648-3.984c.192 0 .36-.032.504-.096v-5.112a3.199 3.199 0 00-.672-.072c-.352 0-.624.2-.816.6-.192.384-.288.952-.288 1.704 0 1.008.104 1.76.312 2.256.208.48.528.72.96.72zm14.491 9.456c-1.104 0-1.96-.24-2.568-.72-.608-.48-1.056-1.344-1.344-2.592-.272-1.248-.408-3.056-.408-5.424 0-2.144.16-3.84.48-5.088.336-1.248.832-2.136 1.488-2.664.672-.528 1.544-.792 2.616-.792s1.912.248 2.52.744c.608.496 1.048 1.352 1.32 2.568.288 1.216.432 2.928.432 5.136 0 2.24-.16 4-.48 5.28-.32 1.28-.808 2.192-1.464 2.736-.64.544-1.504.816-2.592.816zm.144-2.76c.4 0 .704-.2.912-.6.208-.4.352-1.016.432-1.848.08-.848.12-2.024.12-3.528 0-1.552-.032-2.72-.096-3.504-.048-.784-.176-1.36-.384-1.728-.192-.368-.496-.552-.912-.552-.384 0-.688.208-.912.624-.208.4-.36 1.056-.456 1.968-.08.912-.12 2.176-.12 3.792 0 1.36.032 2.416.096 3.168.08.752.216 1.312.408 1.68.208.352.512.528.912.528zm13.516 2.568c-.576 0-1.2-.024-1.872-.072l-.24-4.368c-.048-.864-.144-1.52-.288-1.968-.144-.448-.32-.744-.528-.888-.208-.144-.464-.216-.768-.216h-.264v6.984c0 .176-.04.296-.12.36-.08.048-.344.08-.792.096a51.72 51.72 0 01-1.8.024V25.68c0-.176.04-.288.12-.336.08-.064.336-.104.768-.12a53.942 53.942 0 011.824-.024v6.768h.384c.256 0 .496-.144.72-.432.24-.288.408-.704.504-1.248l.744-4.92a7.838 7.838 0 011.704-.192c.432 0 .728.032.888.096.16.064.24.192.24.384 0 .08-.008.144-.024.192l-.936 4.872c-.224 1.056-.664 1.8-1.32 2.232 1.072.624 1.696 2.064 1.872 4.32l.288 4.224c.016.224-.048.376-.192.456-.144.064-.448.096-.912.096zm7.349.192c-1.104 0-1.96-.24-2.568-.72-.608-.48-1.056-1.344-1.344-2.592-.272-1.248-.408-3.056-.408-5.424 0-2.144.16-3.84.48-5.088.336-1.248.832-2.136 1.488-2.664.672-.528 1.544-.792 2.616-.792s1.912.248 2.52.744c.608.496 1.048 1.352 1.32 2.568.288 1.216.432 2.928.432 5.136 0 2.24-.16 4-.48 5.28-.32 1.28-.808 2.192-1.464 2.736-.64.544-1.504.816-2.592.816zm.144-2.76c.4 0 .704-.2.912-.6.208-.4.352-1.016.432-1.848.08-.848.12-2.024.12-3.528 0-1.552-.032-2.72-.096-3.504-.048-.784-.176-1.36-.384-1.728-.192-.368-.496-.552-.912-.552-.384 0-.688.208-.912.624-.208.4-.36 1.056-.456 1.968-.08.912-.12 2.176-.12 3.792 0 1.36.032 2.416.096 3.168.08.752.216 1.312.408 1.68.208.352.512.528.912.528zm14.524 2.04c0 .176-.04.296-.12.36-.064.048-.32.08-.768.096-.432.016-1.024.024-1.776.024v-7.704h-2.352v7.224c0 .176-.04.296-.12.36-.064.048-.32.08-.768.096-.432.016-1.024.024-1.776.024V25.68c0-.176.032-.288.096-.336.08-.064.336-.104.768-.12a53.012 53.012 0 011.8-.024v6.6h2.352v-6.12c0-.176.032-.288.096-.336.08-.064.336-.104.768-.12a53.012 53.012 0 011.8-.024v16.32zm10.153 0c0 .176-.04.296-.12.36-.064.048-.32.08-.768.096-.432.016-1.024.024-1.776.024v-7.704h-2.352v7.224c0 .176-.04.296-.12.36-.064.048-.32.08-.768.096-.432.016-1.024.024-1.776.024V25.68c0-.176.032-.288.096-.336.08-.064.336-.104.768-.12a53.012 53.012 0 011.8-.024v6.6h2.352v-6.12c0-.176.032-.288.096-.336.08-.064.336-.104.768-.12a53.012 53.012 0 011.8-.024v16.32zm12.38.048c.032.16-.032.28-.192.36-.16.08-.496.12-1.008.12-.56 0-1.072-.016-1.536-.048l-.792-3.84h-3.24l-.696 3.384c-.048.192-.144.328-.288.408-.128.064-.44.096-.936.096-.56 0-1.12-.032-1.68-.096l4.008-16.296c.064-.336.424-.504 1.08-.504.544 0 .968.032 1.272.096l4.008 16.32zm-4.032-5.808l-.48-2.256c-.24-1.152-.448-2.664-.624-4.536-.224 2.032-.44 3.544-.648 4.536l-.48 2.256h2.232zm6.798 1.008c.096-.528.272-.96.528-1.296.256-.352.616-.664 1.08-.936a4.019 4.019 0 01-1.656-1.728c-.384-.768-.576-1.656-.576-2.664 0-1.28.176-2.28.528-3 .368-.72.896-1.224 1.584-1.512.688-.288 1.552-.432 2.592-.432h2.256c.208 0 .336.064.384.192a.607.607 0 01.096.288V42c-.752 0-1.352-.008-1.8-.024-.432-.016-.688-.048-.768-.096-.064-.064-.096-.184-.096-.36v-6.288h-.312c-.528 0-.88.552-1.056 1.656l-.624 4.584a1.205 1.205 0 01-.12.384c-.048.08-.152.136-.312.168s-.424.048-.792.048c-.56 0-1.136-.024-1.728-.072l.792-5.232zm3.648-3.984c.192 0 .36-.032.504-.096v-5.112a3.199 3.199 0 00-.672-.072c-.352 0-.624.2-.816.6-.192.384-.288.952-.288 1.704 0 1.008.104 1.76.312 2.256.208.48.528.72.96.72z" fill="#473321"/><path d="M89.5 471.5V3s-1.5-2-8-2-8 2-8 2v108.5" stroke="#473321" stroke-width="2"/></svg>