<svg width="49" height="49" fill="none" xmlns="http://www.w3.org/2000/svg"><rect x=".418" y=".667" width="47.806" height="47.806" rx="23.903" fill="#E5DDCA"/><path d="M28.898 24.57a4.57 4.57 0 01-4.576 4.576 4.57 4.57 0 01-4.575-4.576 4.57 4.57 0 014.575-4.575 4.57 4.57 0 014.576 4.575z" fill="#473321"/><path d="M35.023 16.475a4.24 4.24 0 00-1.027-1.578 4.24 4.24 0 00-1.578-1.027c-.486-.187-1.214-.41-2.55-.476-1.447-.066-1.885-.084-5.546-.084-3.67 0-4.099.009-5.546.084-1.335.065-2.063.29-2.549.476a4.24 4.24 0 00-1.578 1.027 4.24 4.24 0 00-1.027 1.578c-.187.485-.41 1.214-.476 2.55-.066 1.446-.084 1.876-.084 5.545 0 3.66.018 4.1.084 5.547.065 1.335.28 2.063.476 2.549a4.24 4.24 0 001.027 1.578c.439.457.98.803 1.578 1.027.486.187 1.214.41 2.55.476 1.446.065 1.876.084 5.545.084 3.67 0 4.1-.01 5.547-.084 1.335-.065 2.063-.28 2.549-.476a4.533 4.533 0 002.605-2.605c.187-.486.41-1.214.476-2.55.065-1.447.084-1.886.084-5.546 0-3.67-.01-4.099-.084-5.546-.065-1.335-.29-2.064-.476-2.549zm-10.7 15.145a7.05 7.05 0 110-14.1 7.05 7.05 0 110 14.1zm7.33-12.727a1.646 1.646 0 01-1.644-1.643c0-.906.737-1.643 1.643-1.643s1.643.737 1.643 1.643-.737 1.643-1.643 1.643z" fill="#473321"/><path d="M24.322.667C11.119.667.418 11.367.418 24.57s10.7 23.904 23.904 23.904c13.202 0 23.903-10.7 23.903-23.904 0-13.203-10.7-23.903-23.903-23.903zM37.963 30.23c-.065 1.456-.299 2.455-.635 3.333a7 7 0 01-4.015 4.015c-.868.336-1.867.57-3.333.635-1.466.065-1.933.084-5.658.084-3.726 0-4.193-.019-5.659-.084-1.456-.065-2.455-.299-3.333-.635a6.683 6.683 0 01-2.428-1.587 6.683 6.683 0 01-1.587-2.428c-.336-.868-.57-1.867-.635-3.333-.065-1.466-.084-1.933-.084-5.659 0-3.725.019-4.192.084-5.658.065-1.457.299-2.456.635-3.333a6.683 6.683 0 011.587-2.428 6.683 6.683 0 012.428-1.587c.878-.337 1.867-.57 3.333-.635 1.466-.066 1.933-.084 5.659-.084 3.725 0 4.192.018 5.658.084 1.457.065 2.456.298 3.333.635a6.682 6.682 0 012.428 1.587 6.681 6.681 0 011.587 2.428c.336.877.57 1.867.635 3.333.066 1.466.084 1.933.084 5.658 0 3.726-.018 4.193-.084 5.659z" fill="#473321"/></svg>