<svg width="183" height="44" fill="none" xmlns="http://www.w3.org/2000/svg"><path d="M12.311 34.242h12.396V9.623H12.311v24.619z" fill="#FFD145" stroke="#473321" stroke-width="1.168"/><ellipse rx="1.458" ry="1.331" transform="matrix(-1 0 0 1 18.51 16.277)" fill="#473321" stroke="#473321" stroke-width=".943"/><ellipse rx="1.458" ry="1.331" transform="matrix(-1 0 0 1 18.51 27.589)" fill="#473321" stroke="#473321" stroke-width=".943"/><path d="M182 21.6l-18.958 16.967H30.905s0-2.33-1.823-3.992c-1.823-1.664-4.375-1.664-4.375-1.664V10.288s2.552 0 4.375-1.663 1.823-3.992 1.823-3.992h132.137L182 21.6z" fill="#FFD145" stroke="#473321" stroke-width="1.168"/><path d="M176.531 21.6l-14.948 13.64H34.34s0-2.112-1.654-3.621c-1.654-1.51-3.969-1.51-3.969-1.51V13.13s2.315 0 3.969-1.51C34.34 10.112 34.34 8 34.34 8h127.243l14.948 13.6z" stroke="#473321" stroke-width=".584"/><path d="M39.011 16.199a.43.43 0 01.068-.204c.045-.09.136-.136.272-.136h3.944c0 .43-.006.776-.017 1.037-.011.26-.04.42-.085.476-.034.056-.113.085-.238.085h-2.057v9.962a.66.66 0 01-.051.22c-.034.08-.113.12-.238.12h-1.598v-11.56zm8.189 11.73c-.782 0-1.389-.17-1.82-.51-.43-.34-.747-.952-.951-1.836-.193-.884-.29-2.165-.29-3.842 0-1.519.114-2.72.34-3.604.239-.884.59-1.513 1.055-1.887.476-.374 1.093-.561 1.853-.561s1.354.175 1.785.527c.43.351.742.957.935 1.819.204.861.306 2.074.306 3.638 0 1.587-.113 2.833-.34 3.74-.227.907-.572 1.552-1.037 1.938-.453.385-1.066.578-1.836.578zm.102-1.955c.283 0 .498-.142.646-.425.147-.284.25-.72.306-1.31.056-.6.085-1.433.085-2.498 0-1.1-.023-1.927-.068-2.482-.034-.556-.125-.963-.272-1.224a.68.68 0 00-.646-.391c-.272 0-.488.147-.646.442-.148.283-.255.748-.323 1.394-.057.646-.085 1.541-.085 2.686 0 .963.023 1.711.068 2.244.056.532.153.93.289 1.19.147.25.363.374.646.374zm6.769-10.115c.759 0 1.377.102 1.852.306.477.204.84.56 1.088 1.07.25.51.374 1.22.374 2.126 0 1.405-.305 2.391-.917 2.958-.601.567-1.372.85-2.313.85h-.136v4.25c0 .125-.028.21-.084.255-.057.034-.244.056-.562.068-.305.011-.72.017-1.24.017v-11.56c0-.125.022-.21.067-.255.046-.057.136-.085.272-.085h1.599zm.306 5.559c.294 0 .515-.159.662-.476.148-.317.221-.924.221-1.82 0-.555-.062-.962-.186-1.223-.114-.272-.306-.408-.578-.408h-.477v3.927h.358zm7.422 6.51c-.782 0-1.388-.17-1.819-.51-.43-.34-.748-.951-.952-1.835-.192-.884-.289-2.165-.289-3.842 0-1.519.114-2.72.34-3.604.238-.884.59-1.513 1.054-1.887.476-.374 1.094-.561 1.853-.561.76 0 1.355.175 1.785.527.43.351.743.957.935 1.819.204.861.306 2.074.306 3.638 0 1.587-.113 2.833-.34 3.74-.226.907-.572 1.552-1.037 1.938-.453.385-1.065.578-1.836.578zm.102-1.954c.284 0 .499-.142.646-.425.148-.284.25-.72.306-1.31.057-.6.085-1.433.085-2.498 0-1.1-.022-1.927-.068-2.482-.034-.556-.124-.963-.272-1.224a.68.68 0 00-.646-.391c-.272 0-.487.147-.646.442-.147.283-.255.748-.323 1.394-.056.646-.085 1.541-.085 2.686 0 .963.023 1.711.068 2.244.057.532.153.93.29 1.19.147.25.362.374.645.374zm5.183 4.454c-.328 0-.572-.012-.73-.034-.148-.023-.25-.074-.307-.153-.056-.08-.085-.198-.085-.357V25.99h.323c.295 0 .516-.193.663-.578.159-.386.295-1.241.408-2.567.125-1.337.272-3.553.442-6.647.012-.125.034-.204.068-.238.034-.046.148-.074.34-.085.204-.011.476-.017.816-.017h3.434V25.99h.85v3.893c0 .159-.028.277-.085.357-.056.08-.164.13-.323.153a5.433 5.433 0 01-.73.034 28.867 28.867 0 01-.358-1.445c-.068-.363-.119-.77-.153-1.224h-4.046c-.034.442-.09.833-.17 1.173-.068.351-.187.85-.357 1.496zm3.485-4.437v-8.364H69.6c-.158 2.369-.317 4.188-.476 5.457-.147 1.258-.345 2.227-.595 2.907h2.04zm6.937 1.938c-.68 0-1.224-.153-1.632-.46-.397-.305-.697-.866-.901-1.682-.204-.828-.306-2.023-.306-3.587 0-4.34 1.133-6.511 3.4-6.511.657 0 1.088.09 1.292.272.215.17.323.414.323.73 0 .375-.09.755-.272 1.14a1.45 1.45 0 00-.884-.29c-.567 0-1.02.33-1.36.987-.34.646-.51 1.819-.51 3.519 0 .986.045 1.75.136 2.295.09.544.232.93.425 1.156.192.215.453.323.782.323.566 0 1.008-.085 1.326-.255.17.34.255.708.255 1.105 0 .396-.187.708-.561.935-.363.215-.867.323-1.513.323zm8.452-.136c-.408 0-.85-.017-1.326-.051l-.17-3.094c-.034-.612-.102-1.077-.204-1.394-.102-.318-.227-.527-.374-.63a.933.933 0 00-.544-.152h-.187v4.947c0 .125-.028.21-.085.255-.057.034-.244.056-.56.068a36.72 36.72 0 01-1.276.017v-11.56c0-.125.028-.204.085-.238.057-.046.238-.074.544-.085.317-.011.748-.017 1.292-.017v4.794h.272c.181 0 .351-.102.51-.306.17-.204.29-.499.357-.884l.527-3.485a5.55 5.55 0 011.207-.136c.306 0 .516.022.63.068.112.045.17.136.17.272a.443.443 0 01-.018.136l-.663 3.45c-.159.749-.47 1.276-.935 1.582.76.442 1.201 1.462 1.326 3.06l.204 2.992c.011.159-.034.266-.136.323-.102.045-.317.068-.646.068zm9.35-.34c.023.113-.023.198-.136.255-.113.057-.351.085-.714.085-.397 0-.76-.011-1.088-.034l-.56-2.72h-2.296l-.493 2.397a.43.43 0 01-.204.289c-.09.045-.312.068-.663.068-.397 0-.793-.023-1.19-.068l2.84-11.543c.044-.238.3-.357.764-.357.385 0 .686.023.901.068l2.84 11.56zm-2.856-4.114l-.34-1.598c-.17-.816-.317-1.887-.442-3.213-.159 1.44-.312 2.51-.459 3.213l-.34 1.598h1.581zm4.816.714c.068-.374.193-.68.374-.918.181-.25.436-.47.765-.663a2.846 2.846 0 01-1.173-1.224c-.272-.544-.408-1.173-.408-1.887 0-.907.125-1.615.374-2.125.26-.51.635-.867 1.122-1.071.487-.204 1.1-.306 1.836-.306h1.598c.147 0 .238.045.272.136.045.08.068.147.068.204v11.56c-.533 0-.958-.006-1.275-.017-.306-.012-.487-.034-.544-.068-.045-.046-.068-.13-.068-.255v-4.454h-.221c-.374 0-.623.39-.748 1.173l-.442 3.247a.855.855 0 01-.085.272c-.034.056-.108.096-.221.119a3.18 3.18 0 01-.561.034c-.397 0-.805-.017-1.224-.051l.561-3.706zm2.584-2.822a.873.873 0 00.357-.068v-3.621a2.268 2.268 0 00-.476-.051c-.25 0-.442.142-.578.425-.136.272-.204.674-.204 1.207 0 .714.074 1.246.221 1.598.147.34.374.51.68.51zm10.264 6.698c-.782 0-1.388-.17-1.819-.51-.43-.34-.748-.952-.952-1.836-.192-.884-.289-2.165-.289-3.842 0-1.519.114-2.72.34-3.604.238-.884.59-1.513 1.054-1.887.476-.374 1.094-.561 1.853-.561.76 0 1.355.175 1.785.527.431.351.743.957.935 1.819.204.861.306 2.074.306 3.638 0 1.587-.113 2.833-.34 3.74-.226.907-.572 1.552-1.037 1.938-.453.385-1.065.578-1.836.578zm.102-1.955c.284 0 .499-.142.646-.425.148-.284.25-.72.306-1.31.057-.6.085-1.433.085-2.498 0-1.1-.022-1.927-.068-2.482-.034-.556-.124-.963-.272-1.224a.68.68 0 00-.646-.391c-.272 0-.487.147-.646.442-.147.283-.255.748-.323 1.394-.056.646-.085 1.541-.085 2.686 0 .963.023 1.711.068 2.244.057.532.153.93.289 1.19.148.25.363.374.646.374zm9.574 1.819c-.408 0-.85-.017-1.326-.051l-.17-3.094c-.034-.612-.102-1.077-.204-1.394-.102-.318-.227-.527-.374-.63a.933.933 0 00-.544-.152h-.187v4.947c0 .125-.028.21-.085.255-.057.034-.244.056-.561.068a36.72 36.72 0 01-1.275.017v-11.56c0-.125.028-.204.085-.238.057-.046.238-.074.544-.085.317-.011.748-.017 1.292-.017v4.794h.272c.181 0 .351-.102.51-.306.17-.204.289-.499.357-.884l.527-3.485c.408-.09.81-.136 1.207-.136.306 0 .516.022.629.068.113.045.17.136.17.272a.453.453 0 01-.017.136l-.663 3.45c-.159.749-.47 1.276-.935 1.582.759.442 1.201 1.462 1.326 3.06l.204 2.992c.011.159-.034.266-.136.323-.102.045-.317.068-.646.068zm5.206.136c-.782 0-1.388-.17-1.819-.51-.431-.34-.748-.952-.952-1.836-.193-.884-.289-2.165-.289-3.842 0-1.519.113-2.72.34-3.604.238-.884.589-1.513 1.054-1.887.476-.374 1.094-.561 1.853-.561.759 0 1.354.175 1.785.527.431.351.742.957.935 1.819.204.861.306 2.074.306 3.638 0 1.587-.113 2.833-.34 3.74-.227.907-.572 1.552-1.037 1.938-.453.385-1.065.578-1.836.578zm.102-1.955c.283 0 .499-.142.646-.425.147-.284.249-.72.306-1.31.057-.6.085-1.433.085-2.498 0-1.1-.023-1.927-.068-2.482-.034-.556-.125-.963-.272-1.224a.68.68 0 00-.646-.391c-.272 0-.487.147-.646.442-.147.283-.255.748-.323 1.394-.057.646-.085 1.541-.085 2.686 0 .963.023 1.711.068 2.244.057.532.153.93.289 1.19.147.25.363.374.646.374zm10.288 1.445c0 .125-.029.21-.085.255-.046.034-.227.056-.544.068-.306.011-.726.017-1.258.017v-5.457h-1.666v5.117c0 .125-.029.21-.085.255-.046.034-.227.056-.544.068-.306.011-.726.017-1.258.017v-11.56c0-.125.022-.204.068-.238.056-.046.238-.074.544-.085.317-.011.742-.017 1.275-.017v4.675h1.666v-4.335c0-.125.022-.204.068-.238.056-.046.238-.074.544-.085.317-.011.742-.017 1.275-.017v11.56zm7.192 0c0 .125-.029.21-.085.255-.046.034-.227.056-.544.068-.306.011-.726.017-1.258.017v-5.457h-1.666v5.117c0 .125-.029.21-.085.255-.046.034-.227.056-.544.068-.306.011-.726.017-1.258.017v-11.56c0-.125.022-.204.068-.238.056-.046.238-.074.544-.085.317-.011.742-.017 1.275-.017v4.675h1.666v-4.335c0-.125.022-.204.068-.238.056-.046.238-.074.544-.085.317-.011.742-.017 1.275-.017v11.56zm8.768.034c.023.113-.022.198-.136.255-.113.057-.351.085-.714.085-.396 0-.759-.011-1.088-.034l-.561-2.72h-2.295l-.493 2.397a.43.43 0 01-.204.289c-.09.045-.311.068-.663.068-.396 0-.793-.023-1.19-.068l2.839-11.543c.046-.238.301-.357.765-.357.386 0 .686.023.901.068l2.839 11.56zm-2.856-4.114l-.34-1.598c-.17-.816-.317-1.887-.442-3.213-.158 1.44-.311 2.51-.459 3.213l-.34 1.598h1.581zm4.816.714c.068-.374.193-.68.374-.918.182-.25.437-.47.765-.663a2.846 2.846 0 01-1.173-1.224c-.272-.544-.408-1.173-.408-1.887 0-.907.125-1.615.374-2.125.261-.51.635-.867 1.122-1.071.488-.204 1.1-.306 1.836-.306h1.598c.148 0 .238.045.272.136.046.08.068.147.068.204v11.56c-.532 0-.957-.006-1.275-.017-.306-.012-.487-.034-.544-.068-.045-.046-.068-.13-.068-.255v-4.454h-.221c-.374 0-.623.39-.748 1.173l-.442 3.247a.837.837 0 01-.085.272c-.034.056-.107.096-.221.119a3.21 3.21 0 01-.561.034c-.396 0-.804-.017-1.224-.051l.561-3.706zm2.584-2.822a.873.873 0 00.357-.068v-3.621a2.259 2.259 0 00-.476-.051c-.249 0-.442.142-.578.425-.136.272-.204.674-.204 1.207 0 .714.074 1.246.221 1.598.148.34.374.51.68.51z" fill="#473321"/><path d="M12.311 2.148V41.37s-2.474 1.126-5.655 1.126C3.474 42.496 1 41.37 1 41.37V2.148s1.767-1.127 5.656-1.127c3.888 0 5.655 1.127 5.655 1.127z" fill="#FFD145" stroke="#473321" stroke-width="1.168"/></svg>