<svg width="353" height="558" fill="none" xmlns="http://www.w3.org/2000/svg"><path d="M168.111 538.138l14.681 9.221L164.335 557H120.71l-17.617-14.67 13.003-5.869m52.015 1.677l-10.487 7.545m10.487-7.545l-.839-20.958 6.292-3.772v-2.934m-15.94 35.209l-31.041-1.258m31.041 1.258l-.839-29.76m-30.202 28.502l-10.487-7.964m10.487 7.964l-.839-28.921m-9.648 20.957v-20.119l-6.292-5.868v-4.192m15.94 9.222l-13.842-7.964m13.842 7.964l31.041.419m0 0l16.779-5.449m0 0v-1.677l-6.292-5.449m0 0l-12.584 4.192-27.266-1.258-9.228-4.191 5.872-16.347m43.206 17.604l-7.97-20.119-4.614-20.539-2.517-25.987h-3.356m-20.135 66.645l5.034-27.245m1.678-432.568h-14.444V12.518h14.444v31.017z" stroke="#473321" stroke-width="1.454"/><ellipse cx="128.17" cy="20.901" rx="1.699" ry="1.677" fill="#473321" stroke="#473321" stroke-width=".727"/><ellipse cx="128.17" cy="35.152" rx="1.699" ry="1.677" fill="#473321" stroke="#473321" stroke-width=".727"/><path d="M2 27.607l22.09 21.377h89.636s0-2.934 2.124-5.03 5.098-2.096 5.098-2.096V13.357s-2.974 0-5.098-2.096c-2.124-2.096-2.124-5.03-2.124-5.03H24.09L2 27.607z" stroke="#473321" stroke-width="1.454"/><path d="M8.372 27.608L25.79 44.793h83.934s0-2.662 1.927-4.563c1.927-1.901 4.624-1.901 4.624-1.901V16.934s-2.697 0-4.624-1.901c-1.927-1.901-1.927-4.563-1.927-4.563H25.79L8.372 27.608z" stroke="#473321" stroke-width=".727"/><path d="M53.803 19.608v1.588c0 .151-.031.252-.094.302-.05.05-.145.076-.284.076h-2.022v10.889c0 .139-.038.233-.114.283-.063.038-.264.063-.605.076-.34.013-.8.019-1.38.019V21.574h-2.306v-1.588c0-.252.126-.378.378-.378h6.427zm3.798 11.361h2.684c0 .505-.006.908-.019 1.21-.012.303-.044.492-.094.567-.038.063-.12.095-.246.095h-4.423V19.986c0-.063.025-.139.075-.227.05-.1.151-.15.303-.15h4.537c0 .478-.007.869-.02 1.171-.012.303-.043.498-.094.586-.05.076-.138.114-.264.114H57.6v3.232h2.307c0 .466-.006.857-.019 1.172-.012.303-.044.504-.094.605-.038.101-.114.151-.227.151h-1.966v4.33zm9.807 1.91c-.454 0-.945-.02-1.475-.057l-.189-3.44c-.037-.681-.113-1.198-.226-1.55-.114-.354-.252-.587-.416-.7a1.037 1.037 0 00-.605-.17h-.208v5.5c0 .14-.032.234-.095.284-.063.038-.27.063-.623.076-.34.013-.813.019-1.418.019V19.986c0-.139.031-.227.094-.265.063-.05.265-.081.605-.094.353-.013.832-.019 1.437-.019v5.331h.302c.202 0 .391-.113.568-.34.188-.227.32-.555.396-.983l.586-3.876c.454-.1.902-.15 1.343-.15.34 0 .573.024.7.075.125.05.188.151.188.302a.492.492 0 01-.019.152l-.737 3.837c-.176.832-.523 1.418-1.04 1.758.845.492 1.336 1.626 1.475 3.403l.227 3.327c.012.176-.038.296-.152.36-.113.05-.353.075-.718.075zm5.543.151c-.756 0-1.36-.17-1.814-.51-.442-.34-.775-.965-1.002-1.872-.227-.92-.34-2.25-.34-3.989 0-4.826 1.26-7.24 3.78-7.24.731 0 1.21.1 1.437.302.24.19.36.46.36.813 0 .416-.102.838-.303 1.267a1.612 1.612 0 00-.983-.321c-.63 0-1.135.365-1.513 1.096-.378.718-.567 2.023-.567 3.913 0 1.097.05 1.947.151 2.552.101.605.259 1.034.473 1.286.214.24.504.359.87.359.63 0 1.121-.095 1.474-.284a2.7 2.7 0 01.284 1.23c0 .44-.208.787-.624 1.039-.403.24-.964.359-1.683.359zm10.553-13.422v1.588c0 .151-.032.252-.095.302-.05.05-.145.076-.284.076h-2.022v10.889c0 .139-.038.233-.114.283-.063.038-.264.063-.605.076-.34.013-.8.019-1.38.019V21.574h-2.306v-1.588c0-.252.126-.378.378-.378h6.428z" fill="#473321"/><path d="M149.654 43.954h15.63V12.937h-15.63v31.017z" stroke="#473321" stroke-width="1.454"/><ellipse rx="1.839" ry="1.677" transform="matrix(-1 0 0 1 157.469 21.32)" fill="#473321" stroke="#473321" stroke-width=".727"/><ellipse rx="1.839" ry="1.677" transform="matrix(-1 0 0 1 157.469 35.571)" fill="#473321" stroke="#473321" stroke-width=".727"/><path d="M351 28.026l-23.904 21.377H173.098s0-2.934-2.298-5.03c-2.299-2.095-5.516-2.095-5.516-2.095V13.775s3.217 0 5.516-2.096c2.298-2.095 2.298-5.03 2.298-5.03h153.998L351 28.026z" stroke="#473321" stroke-width="1.454"/><path d="M344.105 28.026l-18.848 17.186H177.429s0-2.662-2.085-4.563c-2.085-1.901-5.004-1.901-5.004-1.901V17.353s2.919 0 5.004-1.901c2.085-1.902 2.085-4.563 2.085-4.563h147.828l18.848 17.137z" stroke="#473321" stroke-width=".727"/><path d="M192.945 21.975c0-.058.023-.128.07-.21.046-.093.139-.14.279-.14h4.048c0 .443-.005.798-.017 1.065-.012.268-.041.43-.087.489-.035.058-.117.087-.245.087h-2.111v10.226a.679.679 0 01-.052.227c-.035.081-.117.122-.245.122h-1.64V21.975zm8.406 12.04c-.803 0-1.425-.174-1.868-.523-.442-.35-.767-.977-.977-1.885-.198-.907-.296-2.222-.296-3.943 0-1.56.116-2.792.349-3.7.244-.907.605-1.553 1.082-1.937.488-.384 1.122-.576 1.902-.576.779 0 1.39.18 1.832.541.442.361.762.983.96 1.867.209.885.314 2.13.314 3.735 0 1.628-.117 2.908-.349 3.839-.233.93-.588 1.594-1.065 1.99-.465.395-1.093.592-1.884.592zm.104-2.006c.291 0 .512-.146.663-.437.152-.29.256-.738.315-1.343.058-.617.087-1.472.087-2.565 0-1.129-.024-1.978-.07-2.548-.035-.57-.128-.989-.279-1.256a.699.699 0 00-.663-.402c-.28 0-.501.151-.663.454-.152.29-.262.768-.332 1.43-.058.664-.087 1.583-.087 2.758 0 .989.023 1.756.07 2.303.058.547.157.954.296 1.222a.726.726 0 00.663.384zm6.948-10.383c.78 0 1.414.105 1.902.314.489.21.861.576 1.117 1.1.256.523.384 1.25.384 2.18 0 1.443-.314 2.455-.942 3.037-.617.582-1.408.872-2.374.872h-.139v4.363c0 .128-.029.215-.087.262-.059.035-.251.058-.576.07-.314.011-.739.017-1.274.017V21.975c0-.128.023-.215.07-.262.046-.058.139-.087.279-.087h1.64zm.314 5.706c.303 0 .53-.163.681-.489.151-.325.227-.948.227-1.867 0-.57-.064-.988-.192-1.256-.117-.28-.314-.419-.594-.419h-.488v4.031h.366zm7.619 6.683c-.802 0-1.425-.174-1.867-.523-.442-.35-.767-.977-.977-1.885-.198-.907-.297-2.222-.297-3.943 0-1.56.117-2.792.349-3.7.245-.907.605-1.553 1.082-1.937.489-.384 1.123-.576 1.902-.576.78 0 1.391.18 1.833.541.442.361.762.983.959 1.867.21.885.315 2.13.315 3.735 0 1.628-.117 2.908-.349 3.839-.233.93-.588 1.594-1.065 1.99-.465.395-1.093.592-1.885.592zm.105-2.006c.291 0 .512-.146.663-.437.152-.29.256-.738.314-1.343.059-.617.088-1.472.088-2.565 0-1.129-.024-1.978-.07-2.548-.035-.57-.128-.989-.279-1.256a.699.699 0 00-.663-.402c-.28 0-.501.151-.664.454-.151.29-.261.768-.331 1.43-.058.664-.087 1.583-.087 2.758 0 .989.023 1.756.069 2.303.059.547.157.954.297 1.222a.726.726 0 00.663.384zm5.32 4.572a5.82 5.82 0 01-.75-.035c-.151-.024-.256-.076-.314-.157-.058-.082-.087-.204-.087-.367v-3.996h.331c.303 0 .53-.198.681-.593.163-.396.302-1.274.419-2.635.128-1.373.279-3.647.453-6.823.012-.128.035-.21.07-.244.035-.047.151-.076.349-.088.209-.011.489-.017.838-.017h3.525v10.4h.872v3.996c0 .163-.029.285-.087.367-.058.081-.169.133-.332.157a5.569 5.569 0 01-.75.035c-.163-.605-.285-1.1-.367-1.484a11.775 11.775 0 01-.157-1.256h-4.153a8.137 8.137 0 01-.174 1.204c-.07.36-.192.872-.367 1.536zm3.578-4.555v-8.585h-.995c-.163 2.431-.326 4.298-.489 5.601-.151 1.291-.354 2.286-.61 2.984h2.094zm7.12 1.99c-.698 0-1.257-.158-1.675-.472-.408-.314-.716-.89-.925-1.727-.21-.85-.314-2.077-.314-3.682 0-4.456 1.163-6.684 3.49-6.684.674 0 1.116.093 1.326.28.221.174.331.424.331.75 0 .384-.093.774-.279 1.17a1.487 1.487 0 00-.907-.297c-.582 0-1.047.337-1.396 1.012-.349.663-.524 1.867-.524 3.612 0 1.012.047 1.797.14 2.355.093.559.238.954.436 1.187.198.221.465.332.803.332.581 0 1.035-.088 1.361-.262.174.349.262.727.262 1.134 0 .407-.192.727-.576.96-.372.22-.89.331-1.553.331zm8.676-.14c-.419 0-.873-.018-1.361-.052l-.175-3.176c-.035-.629-.104-1.106-.209-1.431-.105-.326-.233-.541-.384-.646a.956.956 0 00-.558-.157h-.192v5.078c0 .128-.029.215-.088.262-.058.035-.25.058-.576.07-.314.011-.75.017-1.308.017V21.975c0-.128.029-.21.087-.244.058-.047.244-.076.558-.088.326-.011.768-.017 1.327-.017v4.92h.279c.186 0 .36-.104.523-.313.175-.21.297-.512.367-.908l.541-3.577c.418-.093.831-.14 1.239-.14.314 0 .529.024.645.07.117.047.175.14.175.28a.44.44 0 01-.018.14l-.68 3.541c-.163.768-.483 1.31-.96 1.623.779.454 1.233 1.501 1.361 3.141l.21 3.072c.011.162-.035.273-.14.331-.105.047-.326.07-.663.07zm9.597-.35c.024.117-.023.204-.139.263-.117.058-.361.087-.733.087-.407 0-.78-.012-1.117-.035l-.576-2.792h-2.356l-.506 2.46a.44.44 0 01-.209.297c-.093.047-.32.07-.681.07-.407 0-.814-.023-1.221-.07l2.914-11.848c.047-.245.308-.367.785-.367.396 0 .704.023.925.07l2.914 11.866zm-2.931-4.222l-.349-1.64c-.175-.838-.326-1.937-.454-3.298-.163 1.477-.32 2.576-.471 3.298l-.349 1.64h1.623zm4.943.733c.07-.384.198-.698.384-.942.186-.256.448-.483.785-.681a2.923 2.923 0 01-1.204-1.256c-.279-.559-.419-1.205-.419-1.937 0-.931.128-1.658.384-2.182.268-.523.652-.89 1.152-1.099.5-.21 1.128-.314 1.885-.314h1.64c.151 0 .244.046.279.14.047.081.07.15.07.209V33.84c-.547 0-.983-.006-1.309-.017-.314-.012-.5-.035-.558-.07-.047-.047-.07-.134-.07-.262V28.92h-.227c-.384 0-.64.401-.768 1.204l-.453 3.333a.89.89 0 01-.088.28c-.035.057-.11.098-.226.121a3.312 3.312 0 01-.576.035c-.407 0-.826-.017-1.257-.052l.576-3.804zm2.653-2.897a.895.895 0 00.366-.07v-3.716a2.33 2.33 0 00-.489-.053c-.256 0-.453.146-.593.436-.14.28-.209.693-.209 1.24 0 .732.075 1.279.227 1.64.151.349.383.523.698.523zm10.536 6.875c-.803 0-1.425-.174-1.868-.523-.442-.35-.767-.977-.977-1.885-.197-.907-.296-2.222-.296-3.943 0-1.56.116-2.792.349-3.7.244-.907.605-1.553 1.082-1.937.488-.384 1.122-.576 1.902-.576.779 0 1.39.18 1.832.541.442.361.762.983.96 1.867.209.885.314 2.13.314 3.735 0 1.628-.117 2.908-.349 3.839-.233.93-.588 1.594-1.065 1.99-.465.395-1.093.592-1.884.592zm.104-2.006c.291 0 .512-.146.663-.437.152-.29.256-.738.315-1.343.058-.617.087-1.472.087-2.565 0-1.129-.023-1.978-.07-2.548-.035-.57-.128-.989-.279-1.256a.699.699 0 00-.663-.402c-.279 0-.501.151-.663.454-.152.29-.262.768-.332 1.43-.058.664-.087 1.583-.087 2.758 0 .989.023 1.756.07 2.303.058.547.157.954.296 1.222a.727.727 0 00.663.384zm9.827 1.867c-.418 0-.872-.018-1.361-.052l-.174-3.176c-.035-.629-.105-1.106-.21-1.431-.104-.326-.232-.541-.383-.646a.961.961 0 00-.559-.157h-.192v5.078c0 .128-.029.215-.087.262-.058.035-.25.058-.576.07-.314.011-.75.017-1.309.017V21.975c0-.128.029-.21.088-.244.058-.047.244-.076.558-.088a39.3 39.3 0 011.326-.017v4.92h.279c.187 0 .361-.104.524-.313.174-.21.297-.512.366-.908l.541-3.577a5.7 5.7 0 011.239-.14c.314 0 .53.024.646.07.116.047.174.14.174.28a.444.444 0 01-.017.14l-.681 3.541c-.162.768-.482 1.31-.959 1.623.779.454 1.233 1.501 1.361 3.141l.209 3.072c.012.162-.035.273-.139.331-.105.047-.326.07-.664.07zm5.344.14c-.802 0-1.425-.175-1.867-.524-.442-.35-.768-.977-.977-1.885-.198-.907-.297-2.222-.297-3.943 0-1.56.117-2.792.349-3.7.245-.907.605-1.553 1.082-1.937.489-.384 1.123-.576 1.902-.576.78 0 1.39.18 1.832.541.442.361.762.983.96 1.867.21.885.314 2.13.314 3.735 0 1.628-.116 2.908-.349 3.839-.232.93-.587 1.594-1.064 1.99-.466.395-1.094.592-1.885.592zm.105-2.007c.291 0 .512-.146.663-.437.151-.29.256-.738.314-1.343.058-.617.087-1.472.087-2.565 0-1.129-.023-1.978-.069-2.548-.035-.57-.128-.989-.28-1.256a.697.697 0 00-.663-.402c-.279 0-.5.151-.663.454-.151.29-.262.768-.331 1.43-.059.664-.088 1.583-.088 2.758 0 .989.024 1.756.07 2.303.058.547.157.954.297 1.222a.726.726 0 00.663.384zm10.56 1.483c0 .128-.029.215-.087.262-.047.035-.233.058-.559.07-.314.011-.744.017-1.291.017v-5.602h-1.71v5.253c0 .128-.029.215-.087.262-.047.035-.233.058-.559.07-.314.011-.744.017-1.291.017V21.975c0-.128.023-.21.07-.244.058-.047.244-.076.558-.088.326-.011.762-.017 1.309-.017v4.799h1.71v-4.45c0-.128.023-.21.07-.244.058-.047.244-.076.558-.088.326-.011.762-.017 1.309-.017v11.866zm7.382 0c0 .128-.029.215-.087.262-.047.035-.233.058-.559.07-.314.011-.744.017-1.291.017v-5.602h-1.71v5.253c0 .128-.029.215-.087.262-.047.035-.233.058-.559.07-.314.011-.744.017-1.291.017V21.975c0-.128.023-.21.07-.244.058-.047.244-.076.558-.088.326-.011.762-.017 1.309-.017v4.799h1.71v-4.45c0-.128.023-.21.07-.244.058-.047.244-.076.558-.088.326-.011.762-.017 1.309-.017v11.866zm9.001.035c.023.116-.023.203-.14.262-.116.058-.36.087-.733.087-.407 0-.779-.012-1.116-.035l-.576-2.792h-2.356l-.506 2.46a.443.443 0 01-.209.297c-.093.047-.32.07-.681.07-.407 0-.814-.023-1.221-.07l2.914-11.848c.046-.245.308-.367.785-.367.396 0 .704.023.925.07l2.914 11.866zm-2.932-4.223l-.349-1.64c-.174-.838-.325-1.937-.453-3.298-.163 1.477-.32 2.576-.471 3.298l-.349 1.64h1.622zm4.944.733c.07-.384.198-.698.384-.942.186-.256.448-.483.785-.681a2.918 2.918 0 01-1.204-1.256c-.279-.559-.419-1.205-.419-1.937 0-.931.128-1.658.384-2.182.268-.523.651-.89 1.152-1.099.5-.21 1.128-.314 1.884-.314h1.641c.151 0 .244.046.279.14.046.081.07.15.07.209V33.84c-.547 0-.983-.006-1.309-.017-.314-.012-.5-.035-.559-.07-.046-.047-.069-.134-.069-.262V28.92h-.227c-.384 0-.64.401-.768 1.204l-.454 3.333a.867.867 0 01-.087.28c-.035.057-.11.098-.227.121a3.297 3.297 0 01-.576.035c-.407 0-.826-.017-1.256-.052l.576-3.804zm2.652-2.897a.89.89 0 00.367-.07v-3.716a2.33 2.33 0 00-.489-.053c-.256 0-.454.146-.593.436-.14.28-.21.693-.21 1.24 0 .732.076 1.279.227 1.64.151.349.384.523.698.523z" fill="#473321"/><path d="M149.234 395.206V2.458S147.976.78 142.523.78s-6.712 1.677-6.712 1.677v90.957" stroke="#473321" stroke-width="1.454"/></svg>