<svg width="452" height="716" fill="none" xmlns="http://www.w3.org/2000/svg"><path d="M215.23 690.788l18.846 11.837L210.384 715h-56l-22.615-18.832 16.692-7.533m66.769 2.153l-13.461 9.685m13.461-9.685l-1.077-26.903 8.077-4.843v-3.766m-20.461 45.197l-39.847-1.615m39.847 1.615l-1.077-38.202m-38.77 36.587l-13.461-10.223m13.461 10.223l-1.077-37.125m-12.384 26.902v-25.826l-8.077-7.533v-5.381m20.461 11.838l-17.769-10.223m17.769 10.223l39.847.538m0 0l21.538-6.995m0 0v-2.152l-8.077-6.995m0 0l-16.154 5.381-35-1.615-11.846-5.38 7.539-20.984m55.461 22.598l-10.231-25.827-5.923-26.364-3.23-33.36h-4.308m-25.846 85.551l6.461-34.974m2.155-555.273H154.69V16.065h18.541v39.817z" stroke="#473321" stroke-width="1.867"/><ellipse cx="163.961" cy="26.827" rx="2.181" ry="2.152" fill="#473321" stroke="#473321" stroke-width=".933"/><ellipse cx="163.961" cy="45.12" rx="2.181" ry="2.152" fill="#473321" stroke="#473321" stroke-width=".933"/><path d="M2 35.436l28.357 27.44h115.062s0-3.766 2.727-6.456c2.727-2.69 6.544-2.69 6.544-2.69V17.142s-3.817 0-6.544-2.69c-2.727-2.69-2.727-6.457-2.727-6.457H30.357L2 35.435z" stroke="#473321" stroke-width="1.867"/><path d="M10.18 35.436l22.358 22.06h107.744s0-3.417 2.473-5.857c2.473-2.44 5.936-2.44 5.936-2.44V21.733s-3.463 0-5.936-2.44-2.473-5.857-2.473-5.857H32.538l-22.358 22z" stroke="#473321" stroke-width=".933"/><path d="M58.067 43.156c-1.116 0-1.982-.243-2.597-.728-.614-.485-1.067-1.359-1.359-2.62-.275-1.263-.412-3.09-.412-5.485 0-2.168.162-3.883.485-5.145.34-1.262.841-2.16 1.505-2.693.68-.534 1.56-.801 2.645-.801 1.084 0 1.933.25 2.548.752s1.06 1.367 1.335 2.597c.29 1.23.436 2.96.436 5.193 0 2.265-.161 4.044-.485 5.339-.324 1.294-.817 2.216-1.48 2.766-.647.55-1.521.825-2.621.825zm.145-2.79c.405 0 .712-.203.923-.607.21-.405.355-1.028.436-1.869.081-.857.122-2.046.122-3.567 0-1.57-.033-2.75-.097-3.543-.049-.793-.178-1.375-.389-1.747-.194-.372-.501-.558-.922-.558-.388 0-.695.21-.922.63-.21.405-.364 1.068-.46 1.99-.082.923-.122 2.2-.122 3.835 0 1.375.032 2.442.097 3.203.08.76.218 1.326.412 1.698.21.356.518.534.922.534zm7.399 6.357c-.47 0-.817-.016-1.044-.048-.21-.033-.355-.105-.436-.219-.081-.113-.122-.283-.122-.51V40.39h.461c.421 0 .737-.275.947-.825.226-.55.42-1.772.582-3.665.178-1.909.389-5.072.631-9.488.016-.178.049-.291.097-.34.049-.064.21-.105.486-.121.29-.016.679-.024 1.164-.024h4.902V40.39h1.214v5.557c0 .226-.04.396-.122.51-.08.112-.234.185-.46.218-.211.032-.559.048-1.044.048a40.927 40.927 0 01-.51-2.063c-.097-.517-.17-1.1-.218-1.747h-5.776c-.048.631-.13 1.19-.242 1.675a35.77 35.77 0 01-.51 2.135zm4.975-6.333V28.45h-1.384c-.226 3.382-.453 5.978-.679 7.79-.21 1.796-.493 3.179-.85 4.15h2.913zm8.785.12h3.446c0 .648-.008 1.166-.024 1.554-.017.388-.057.63-.122.728-.048.08-.154.121-.315.121h-5.679V26.412c0-.08.033-.178.097-.291.065-.13.195-.194.389-.194h5.824c0 .614-.008 1.116-.025 1.504-.016.389-.056.64-.121.752-.065.098-.178.146-.34.146h-3.13v4.15h2.96c0 .598-.008 1.1-.024 1.504-.016.389-.056.647-.121.777-.049.13-.146.194-.291.194H79.37v5.557zm9.392 2.646c-.971 0-1.748-.218-2.33-.655-.566-.437-.995-1.238-1.286-2.403-.291-1.18-.437-2.887-.437-5.12 0-6.196 1.618-9.294 4.853-9.294.939 0 1.553.13 1.845.388.307.243.46.59.46 1.044 0 .534-.129 1.076-.388 1.626a2.07 2.07 0 00-1.261-.413c-.81 0-1.456.47-1.942 1.407-.485.923-.728 2.597-.728 5.024 0 1.407.065 2.5.194 3.276.13.776.332 1.326.607 1.65.275.307.647.46 1.116.46.81 0 1.44-.12 1.893-.363.243.485.364 1.011.364 1.577 0 .566-.267 1.011-.8 1.335-.519.307-1.238.461-2.16.461zm8.962 0c-.97 0-1.747-.218-2.33-.655-.566-.437-.995-1.238-1.286-2.403-.29-1.18-.436-2.887-.436-5.12 0-6.196 1.617-9.294 4.853-9.294.938 0 1.553.13 1.844.388.307.243.461.59.461 1.044 0 .534-.129 1.076-.388 1.626a2.07 2.07 0 00-1.262-.413c-.809 0-1.456.47-1.941 1.407-.486.923-.728 2.597-.728 5.024 0 1.407.064 2.5.194 3.276.13.776.331 1.326.606 1.65.276.307.648.46 1.117.46.809 0 1.44-.12 1.893-.363.242.485.364 1.011.364 1.577 0 .566-.267 1.011-.801 1.335-.518.307-1.238.461-2.16.461zm15.383-.68c.032.162-.032.284-.194.364-.162.081-.502.122-1.019.122-.567 0-1.084-.016-1.553-.049l-.801-3.882h-3.276l-.704 3.421a.613.613 0 01-.291.413c-.13.064-.445.097-.947.097a14.94 14.94 0 01-1.698-.097l4.052-16.477c.065-.34.429-.51 1.092-.51.55 0 .979.032 1.286.097l4.053 16.502zm-4.077-5.872l-.485-2.281c-.243-1.165-.453-2.694-.631-4.587-.227 2.055-.445 3.584-.655 4.587l-.486 2.281h2.257z" fill="#473321"/><path d="M191.538 56.42h20.064V16.603h-20.064V56.42z" stroke="#473321" stroke-width="1.867"/><ellipse rx="2.36" ry="2.152" transform="matrix(-1 0 0 1 201.569 27.365)" fill="#473321" stroke="#473321" stroke-width=".933"/><ellipse rx="2.36" ry="2.152" transform="matrix(-1 0 0 1 201.569 45.659)" fill="#473321" stroke="#473321" stroke-width=".933"/><path d="M450 35.974l-30.685 27.44H221.633s0-3.766-2.95-6.456c-2.951-2.69-7.081-2.69-7.081-2.69V17.68s4.13 0 7.081-2.69c2.95-2.69 2.95-6.457 2.95-6.457h197.682L450 35.973z" stroke="#473321" stroke-width="1.867"/><path d="M441.148 35.974l-24.193 22.06H227.193s0-3.417-2.677-5.857c-2.676-2.44-6.423-2.44-6.423-2.44V22.271s3.747 0 6.423-2.44c2.677-2.44 2.677-5.857 2.677-5.857h189.762l24.193 21.999z" stroke="#473321" stroke-width=".933"/><path d="M247.109 28.681c0-.074.03-.164.09-.268.059-.12.179-.18.358-.18h5.197c0 .568-.008 1.023-.022 1.367-.015.343-.053.552-.112.627-.045.075-.15.112-.314.112h-2.71v13.126a.876.876 0 01-.068.291c-.044.105-.149.157-.313.157h-2.106V28.681zm10.79 15.456c-1.03 0-1.829-.224-2.397-.672-.567-.448-.985-1.254-1.254-2.419-.254-1.165-.381-2.852-.381-5.062 0-2.001.149-3.584.448-4.75.314-1.164.777-1.993 1.389-2.486.627-.492 1.441-.739 2.441-.739 1.001 0 1.785.232 2.352.695.568.463.979 1.262 1.232 2.396.269 1.136.404 2.733.404 4.794 0 2.09-.15 3.733-.448 4.928-.299 1.195-.754 2.046-1.367 2.554-.597.508-1.403.761-2.419.761zm.134-2.576c.374 0 .658-.186.852-.56.194-.373.328-.948.403-1.724.075-.792.112-1.89.112-3.293 0-1.449-.03-2.539-.09-3.27-.045-.732-.164-1.27-.358-1.613a.896.896 0 00-.851-.516c-.359 0-.642.194-.852.583-.194.373-.336.985-.425 1.837-.075.85-.112 2.03-.112 3.539 0 1.27.03 2.255.089 2.957.075.701.202 1.224.381 1.568.194.328.478.492.851.492zm8.919-13.328c1.001 0 1.815.135 2.442.404.627.268 1.105.739 1.433 1.41.329.673.493 1.606.493 2.8 0 1.852-.403 3.152-1.209 3.898-.792.747-1.807 1.12-3.047 1.12h-.179v5.6c0 .165-.037.277-.112.336-.075.045-.321.075-.739.09-.403.015-.948.022-1.635.022V28.681c0-.164.029-.276.089-.336.06-.074.179-.112.359-.112h2.105zm.403 7.325c.389 0 .68-.209.874-.627.194-.418.291-1.217.291-2.397 0-.732-.082-1.27-.246-1.613-.15-.358-.403-.537-.762-.537h-.627v5.174h.47zm9.781 8.58c-1.03 0-1.829-.225-2.397-.673-.567-.448-.985-1.254-1.254-2.419-.254-1.165-.381-2.852-.381-5.062 0-2.001.149-3.584.448-4.75.314-1.164.777-1.993 1.389-2.486.627-.492 1.441-.739 2.441-.739 1.001 0 1.785.232 2.352.695.568.463.979 1.262 1.232 2.396.269 1.136.404 2.733.404 4.794 0 2.09-.15 3.733-.448 4.928-.299 1.195-.755 2.046-1.367 2.554-.597.508-1.404.761-2.419.761zm.134-2.577c.374 0 .657-.186.852-.56.194-.373.328-.948.403-1.724.074-.792.112-1.89.112-3.293 0-1.449-.03-2.539-.09-3.27-.045-.732-.164-1.27-.358-1.613a.896.896 0 00-.851-.516c-.359 0-.643.194-.852.583-.194.373-.336.985-.425 1.837-.075.85-.112 2.03-.112 3.539 0 1.27.03 2.255.089 2.957.075.701.202 1.224.381 1.568.194.328.478.492.851.492zm6.83 5.87a7.47 7.47 0 01-.963-.046c-.195-.03-.329-.097-.404-.201-.074-.105-.112-.262-.112-.47v-5.13h.426c.388 0 .679-.254.874-.762.209-.508.388-1.635.537-3.382.164-1.762.359-4.682.583-8.759.014-.164.044-.268.089-.313.045-.06.194-.097.448-.112.269-.015.627-.023 1.075-.023h4.525v13.35h1.12v5.13c0 .21-.037.366-.112.47-.075.105-.216.172-.425.202-.195.03-.516.045-.964.045a37.27 37.27 0 01-.47-1.904 14.768 14.768 0 01-.202-1.613h-5.331a10.314 10.314 0 01-.224 1.546c-.089.463-.246 1.12-.47 1.971zm4.592-5.847V30.563h-1.277c-.209 3.121-.418 5.518-.627 7.19-.194 1.658-.456 2.935-.784 3.83h2.688zm9.14 2.553c-.896 0-1.613-.201-2.151-.605-.522-.403-.918-1.142-1.187-2.217-.269-1.09-.403-2.666-.403-4.726 0-5.72 1.493-8.58 4.48-8.58.866 0 1.433.12 1.702.359.284.224.426.545.426.963a3.5 3.5 0 01-.359 1.5 1.908 1.908 0 00-1.164-.38c-.747 0-1.344.433-1.792 1.3-.448.85-.672 2.396-.672 4.636 0 1.3.059 2.307.179 3.024.119.717.306 1.224.56 1.523.254.284.597.426 1.03.426.747 0 1.329-.112 1.747-.336.224.448.336.933.336 1.456 0 .522-.246.933-.739 1.232-.478.283-1.142.425-1.993.425zm11.137-.179c-.538 0-1.12-.022-1.747-.067l-.224-4.077c-.045-.806-.135-1.419-.269-1.837-.135-.418-.299-.694-.493-.828a1.229 1.229 0 00-.717-.202h-.246v6.518c0 .165-.038.277-.112.336-.075.045-.321.075-.739.09-.404.015-.964.022-1.68.022V28.681c0-.164.037-.268.112-.313.074-.06.313-.097.716-.112.419-.015.986-.023 1.703-.023v6.317h.358c.239 0 .463-.134.672-.403.224-.269.381-.657.471-1.165l.694-4.592a7.324 7.324 0 011.59-.18c.404 0 .68.03.829.09.15.06.224.18.224.359a.582.582 0 01-.022.18l-.874 4.546c-.209.986-.62 1.68-1.232 2.084 1.001.582 1.583 1.926 1.747 4.032l.269 3.942c.015.209-.045.35-.179.425-.134.06-.418.09-.851.09zm12.32-.448c.03.15-.03.262-.179.336-.15.075-.463.112-.941.112-.523 0-1.001-.015-1.434-.045l-.739-3.584h-3.024l-.65 3.159a.564.564 0 01-.268.38c-.12.06-.411.09-.874.09-.523 0-1.045-.03-1.568-.09l3.741-15.21c.06-.313.396-.47 1.008-.47.508 0 .903.03 1.187.09l3.741 15.232zm-3.763-5.42l-.448-2.106c-.224-1.076-.419-2.487-.583-4.234-.209 1.897-.41 3.308-.605 4.234l-.448 2.105h2.084zm6.345.94c.09-.493.254-.896.493-1.21.239-.328.575-.62 1.008-.873a3.755 3.755 0 01-1.546-1.613c-.358-.717-.537-1.546-.537-2.486 0-1.195.164-2.128.493-2.8.343-.672.836-1.143 1.478-1.411.642-.27 1.449-.404 2.419-.404h2.106c.194 0 .313.06.358.18.06.104.09.194.09.268v15.232c-.702 0-1.262-.007-1.68-.022-.403-.015-.642-.045-.717-.09-.06-.06-.09-.171-.09-.336v-5.869h-.291c-.493 0-.821.516-.985 1.546l-.583 4.278c-.03.165-.067.284-.112.359-.045.075-.142.127-.291.157s-.396.044-.739.044c-.523 0-1.06-.022-1.613-.067l.739-4.883zm3.405-3.718c.179 0 .336-.03.47-.09v-4.771a2.984 2.984 0 00-.627-.067c-.328 0-.582.186-.761.56-.18.358-.269.888-.269 1.59 0 .94.097 1.643.291 2.106.194.448.493.672.896.672zm13.525 8.825c-1.03 0-1.829-.224-2.397-.672-.567-.448-.985-1.254-1.254-2.419-.254-1.165-.381-2.852-.381-5.062 0-2.001.149-3.584.448-4.75.314-1.164.777-1.993 1.389-2.486.627-.492 1.441-.739 2.441-.739 1.001 0 1.785.232 2.352.695.568.463.979 1.262 1.232 2.396.269 1.136.404 2.733.404 4.794 0 2.09-.15 3.733-.448 4.928-.299 1.195-.755 2.046-1.367 2.554-.597.508-1.404.761-2.419.761zm.134-2.576c.374 0 .657-.186.852-.56.194-.373.328-.948.403-1.724.074-.792.112-1.89.112-3.293 0-1.449-.03-2.539-.09-3.27-.045-.732-.164-1.27-.358-1.613a.896.896 0 00-.851-.516c-.359 0-.643.194-.852.583-.194.373-.336.985-.425 1.837-.075.85-.112 2.03-.112 3.539 0 1.27.03 2.255.089 2.957.075.701.202 1.224.381 1.568.194.328.478.492.851.492zm12.615 2.397c-.538 0-1.12-.022-1.747-.067l-.224-4.077c-.045-.806-.135-1.419-.269-1.837-.134-.418-.299-.694-.493-.828a1.229 1.229 0 00-.717-.202h-.246v6.518c0 .165-.037.277-.112.336-.075.045-.321.075-.739.09-.403.015-.963.022-1.68.022V28.681c0-.164.037-.268.112-.313.075-.06.313-.097.717-.112.418-.015.985-.023 1.702-.023v6.317h.358c.239 0 .463-.134.672-.403.224-.269.381-.657.471-1.165l.694-4.592a7.326 7.326 0 011.591-.18c.403 0 .679.03.828.09.15.06.224.18.224.359a.582.582 0 01-.022.18l-.874 4.546c-.209.986-.619 1.68-1.232 2.084 1.001.582 1.583 1.926 1.748 4.032l.268 3.942c.015.209-.044.35-.179.425-.134.06-.418.09-.851.09zm6.86.18c-1.031 0-1.83-.225-2.397-.673-.568-.448-.986-1.254-1.254-2.419-.254-1.165-.381-2.852-.381-5.062 0-2.001.149-3.584.448-4.75.313-1.164.776-1.993 1.389-2.486.627-.492 1.441-.739 2.441-.739 1.001 0 1.785.232 2.352.695.568.463.978 1.262 1.232 2.396.269 1.136.403 2.733.403 4.794 0 2.09-.149 3.733-.448 4.928-.298 1.195-.754 2.046-1.366 2.554-.597.508-1.404.761-2.419.761zm.134-2.577c.373 0 .657-.186.851-.56.194-.373.329-.948.404-1.724.074-.792.112-1.89.112-3.293 0-1.449-.03-2.539-.09-3.27-.045-.732-.164-1.27-.358-1.613a.897.897 0 00-.852-.516c-.358 0-.642.194-.851.583-.194.373-.336.985-.425 1.837-.075.85-.112 2.03-.112 3.539 0 1.27.029 2.255.089 2.957.075.701.202 1.224.381 1.568.194.328.478.492.851.492zm13.556 1.904c0 .165-.038.277-.112.336-.06.045-.299.075-.717.09-.403.015-.956.022-1.658.022v-7.19h-2.195v6.742c0 .165-.037.277-.112.336-.06.045-.299.075-.717.09a47.24 47.24 0 01-1.657.022V28.681c0-.164.029-.268.089-.313.075-.06.314-.097.717-.112.418-.015.978-.023 1.68-.023v6.16h2.195v-5.712c0-.164.03-.268.09-.313.074-.06.313-.097.717-.112.418-.015.978-.023 1.68-.023v15.232zm9.476 0c0 .165-.037.277-.112.336-.06.045-.299.075-.717.09-.403.015-.956.022-1.658.022v-7.19h-2.195v6.742c0 .165-.037.277-.112.336-.059.045-.298.075-.717.09a47.2 47.2 0 01-1.657.022V28.681c0-.164.03-.268.089-.313.075-.06.314-.097.717-.112.418-.015.978-.023 1.68-.023v6.16h2.195v-5.712c0-.164.03-.268.09-.313.075-.06.314-.097.717-.112.418-.015.978-.023 1.68-.023v15.232zm11.554.045c.03.15-.03.262-.179.336-.149.075-.463.112-.941.112-.523 0-1-.015-1.434-.045l-.739-3.584h-3.024l-.649 3.159a.568.568 0 01-.269.38c-.12.06-.411.09-.874.09-.522 0-1.045-.03-1.568-.09l3.741-15.21c.06-.313.396-.47 1.008-.47.508 0 .904.03 1.187.09l3.741 15.232zm-3.763-5.42l-.448-2.106c-.224-1.076-.418-2.487-.583-4.234-.209 1.897-.41 3.308-.604 4.234l-.448 2.105h2.083zm6.346.94c.089-.493.253-.896.492-1.21.239-.328.575-.62 1.008-.873a3.747 3.747 0 01-1.545-1.613c-.359-.717-.538-1.546-.538-2.486 0-1.195.164-2.128.493-2.8.343-.672.836-1.143 1.478-1.411.642-.27 1.449-.404 2.42-.404h2.105c.194 0 .314.06.359.18a.574.574 0 01.089.268v15.232c-.702 0-1.262-.007-1.68-.022-.403-.015-.642-.045-.717-.09-.059-.06-.089-.171-.089-.336v-5.869h-.291c-.493 0-.822.516-.986 1.546l-.582 4.278a1.15 1.15 0 01-.112.359c-.045.075-.142.127-.292.157-.149.03-.395.044-.739.044-.523 0-1.06-.022-1.613-.067l.74-4.883zm3.404-3.718c.18 0 .336-.03.471-.09v-4.771a2.984 2.984 0 00-.627-.067c-.329 0-.583.186-.762.56-.179.358-.269.888-.269 1.59 0 .94.097 1.643.291 2.106.194.448.493.672.896.672z" fill="#473321"/><path d="M190.999 507.31V3.152S189.384 1 182.384 1s-8.615 2.152-8.615 2.152V119.91" stroke="#473321" stroke-width="1.867"/></svg>