<svg width="44" height="35" fill="none" xmlns="http://www.w3.org/2000/svg"><path d="M10.483 34.665c-3.347 0-5.955-.935-7.825-2.806C.886 29.99 0 27.331 0 23.886c0-3.74.837-7.383 2.51-10.926 1.772-3.544 3.74-6.448 5.906-8.711C10.68 1.985 12.403.853 13.584.853c1.575 0 2.855.295 3.839.885 1.083.591 1.82 1.723 2.215 3.396-1.477 2.56-2.412 4.48-2.806 5.759-.393 1.181-.787 3.002-1.181 5.463 1.575.886 2.658 2.018 3.248 3.396.59 1.378.886 3.15.886 5.315 0 2.658-.886 4.922-2.657 6.792-1.772 1.87-3.987 2.806-6.645 2.806zm24.067 0c-3.346 0-5.906-.935-7.677-2.806-1.772-1.87-2.658-4.528-2.658-7.973 0-3.74.837-7.383 2.51-10.926 1.772-3.544 3.74-6.448 5.906-8.711C34.796 1.985 36.47.853 37.65.853c1.673 0 3.002.295 3.987.885 1.082.591 1.82 1.723 2.214 3.396-1.476 2.56-2.411 4.48-2.805 5.759-.394 1.181-.787 3.002-1.181 5.463 1.575.886 2.657 2.018 3.248 3.396.59 1.378.886 3.15.886 5.315 0 2.658-.935 4.922-2.805 6.792-1.772 1.87-3.987 2.806-6.645 2.806z" fill="#473321"/></svg>