<svg width="130" height="34" fill="none" xmlns="http://www.w3.org/2000/svg"><path d="M22.266 2.447c-9.815 5.13-6.865 14.075-4.163 17.907-18.227 0-18.986 8.549-17.087 12.823H129.61c-.876-3.184-8.836-3.39-12.706-3.095-2.103-4.422-8.179-3.906-10.954-3.095 2.191-2.211 4.206-8.136-5.258-14.15-9.464-6.012-23.221-.883-28.917 2.433 1.241-1.548 2.98-5.04 0-6.633-2.98-1.591-6.937.664-8.544 1.99 1.241-1.99 1.796-6.411-5.915-8.18-7.711-1.768-9.347 4.717-9.2 8.18-4.528-4.863-16.037-13.309-25.851-8.18z" fill="#fff"/></svg>