<svg width="287" height="73" fill="none" xmlns="http://www.w3.org/2000/svg"><path d="M48.74 4.294c-21.783 11.384-15.235 31.24-9.238 39.746C-.954 44.04-2.64 63.013 1.575 72.5H287c-1.945-7.066-19.612-7.524-28.202-6.87-4.668-9.813-18.153-8.668-24.312-6.87 4.862-4.906 9.336-18.057-11.67-31.403-21.006-13.347-51.542-1.963-64.184 5.397 2.755-3.435 6.612-11.187 0-14.72-6.613-3.533-15.398 1.472-18.964 4.416 2.755-4.416 3.987-14.23-13.129-18.156C109.424.37 105.793 14.762 106.117 22.45 96.068 11.655 70.524-7.09 48.74 4.294z" fill="#E5DDCA"/></svg>