<svg width="396" height="126" fill="none" xmlns="http://www.w3.org/2000/svg"><path d="M21.96 94.597c-9.815 5.129-6.865 14.075-4.163 17.907-18.227 0-18.986 8.548-17.088 12.822h128.596c-.877-3.183-8.836-3.39-12.706-3.095-2.104-4.421-8.179-3.906-10.954-3.095 2.191-2.211 4.206-8.135-5.258-14.149-9.464-6.013-23.221-.884-28.917 2.432 1.241-1.547 2.98-5.04 0-6.632-2.98-1.592-6.938.663-8.544 1.99 1.241-1.99 1.796-6.412-5.915-8.18-7.711-1.769-9.347 4.716-9.201 8.18-4.528-4.864-16.036-13.31-25.85-8.18z" fill="#fff"/><path d="M157.24 3.544c-21.783 11.384-15.235 31.24-9.238 39.746-40.456 0-42.141 18.973-37.927 28.46H395.5c-1.945-7.066-19.612-7.524-28.202-6.87-4.668-9.813-18.153-8.668-24.312-6.87 4.862-4.906 9.336-18.057-11.67-31.403-21.006-13.347-51.542-1.963-64.184 5.397 2.755-3.435 6.612-11.187 0-14.72-6.613-3.533-15.398 1.472-18.964 4.416 2.755-4.416 3.987-14.23-13.129-18.156C217.924-.38 214.293 14.012 214.617 21.7 204.568 10.905 179.024-7.84 157.24 3.544z" fill="#E5DDCA"/></svg>