<svg width="49" height="49" fill="none" xmlns="http://www.w3.org/2000/svg"><rect x=".612" y=".667" width="47.806" height="47.806" rx="23.903" fill="#473321"/><path fill-rule="evenodd" clip-rule="evenodd" d="M29.83 36.406c1.67.731 2.296-.8 2.296-.8l4.42-22.207c-.034-1.497-2.053-.592-2.053-.592L9.745 22.518s-1.183.418-1.079 1.149c.105.73 1.045 1.079 1.045 1.079l6.23 2.088s1.88 6.161 2.262 7.345c.349 1.148.662 1.183.662 1.183.348.14.661-.104.661-.104l4.038-3.655 6.265 4.803zm1.078-19.073s.87-.522.835 0c0 0 .14.07-.313.557-.418.418-10.268 9.259-11.59 10.442a.366.366 0 00-.175.313l-.383 3.272c-.07.348-.522.383-.626.07l-1.636-5.36a.512.512 0 01.209-.592l13.679-8.702z" fill="#E5DDCA"/></svg>