<svg width="49" height="49" fill="none" xmlns="http://www.w3.org/2000/svg"><rect x=".225" y=".667" width="47.806" height="47.806" rx="23.903" fill="#473321"/><path d="M35.834 12.803c-.79-.727-3.992-3.055-11.127-3.086 0 0-8.41-.51-12.51 3.252-2.284 2.282-3.087 5.617-3.17 9.762-.083 4.138-.191 11.899 7.288 14.003h.007l-.007 3.207s-.044 1.301.81 1.563c1.033.318 1.645-.67 2.634-1.735a95.603 95.603 0 001.855-2.098c5.114.427 9.049-.554 9.495-.701 1.033-.338 6.88-1.084 7.83-8.844.982-7.984-.478-13.04-3.105-15.323zm.867 14.761c-.803 6.479-5.541 6.887-6.415 7.168-.37.12-3.826.982-8.174.695 0 0-3.24 3.909-4.247 4.922-.16.16-.344.224-.466.192-.172-.045-.223-.249-.216-.549 0-.433.025-5.337.025-5.337-.006 0-.006 0 0 0-6.332-1.753-5.962-8.36-5.892-11.816.07-3.456.72-6.293 2.653-8.2 3.462-3.137 10.61-2.671 10.61-2.671 6.033.025 8.921 1.842 9.59 2.448 2.226 1.913 3.361 6.472 2.532 13.148z" fill="#E5DDCA"/><path d="M27.646 22.962a.405.405 0 01-.401-.383c-.07-1.37-.714-2.04-2.028-2.11a.406.406 0 01.045-.81c1.734.096 2.703 1.09 2.793 2.876a.396.396 0 01-.383.42c-.013.007-.02.007-.026.007z" fill="#E5DDCA"/><path d="M29.713 23.65h-.006a.405.405 0 01-.396-.414c.032-1.377-.363-2.493-1.205-3.412-.835-.918-1.99-1.415-3.513-1.524a.401.401 0 01-.37-.433.401.401 0 01.434-.37c1.721.128 3.08.727 4.049 1.785.975 1.065 1.447 2.398 1.415 3.973a.408.408 0 01-.408.395z" fill="#E5DDCA"/><path d="M31.83 24.479a.4.4 0 01-.403-.402c-.019-2.468-.726-4.349-2.168-5.758-1.422-1.39-3.226-2.098-5.35-2.117a.406.406 0 010-.81c2.34.02 4.33.804 5.905 2.347 1.582 1.543 2.391 3.673 2.417 6.325a.4.4 0 01-.402.415c.006 0 .006 0 0 0zm-6.517 3.474s.567.051.873-.325l.593-.746c.287-.37.982-.606 1.658-.23.376.211 1.059.632 1.48.944a38.876 38.876 0 011.377 1.104c.44.37.542.911.242 1.492v.012a6.22 6.22 0 01-1.237 1.524c-.006 0-.006.007-.013.007-.427.357-.848.56-1.256.605-.05.013-.108.013-.185.013-.178 0-.357-.025-.535-.083l-.013-.019c-.638-.178-1.696-.625-3.456-1.6a20.53 20.53 0 01-2.908-1.92c-.427-.338-.86-.714-1.307-1.16l-.045-.045-.044-.044-.045-.045-.045-.045c-.44-.446-.822-.88-1.16-1.307a20.154 20.154 0 01-1.92-2.908c-.975-1.766-1.422-2.824-1.6-3.456l-.02-.012a1.737 1.737 0 01-.082-.536c0-.077 0-.134.013-.185.05-.414.255-.829.605-1.256 0-.006.007-.006.007-.013a6.075 6.075 0 011.524-1.237h.013c.573-.3 1.115-.198 1.492.242 0 0 .771.925 1.103 1.378.312.427.733 1.103.944 1.48.376.675.14 1.37-.23 1.657l-.746.593c-.376.306-.325.873-.325.873s1.103 4.196 5.248 5.248z" fill="#E5DDCA"/></svg>