<svg width="48" height="49" fill="none" xmlns="http://www.w3.org/2000/svg"><rect y=".668" width="47.806" height="47.806" rx="23.903" fill="#473321"/><path fill-rule="evenodd" clip-rule="evenodd" d="M35.594 14.75a3.744 3.744 0 012.633 2.634c.64 2.338.616 7.21.616 7.21s0 4.85-.616 7.188a3.744 3.744 0 01-2.633 2.633c-2.338.615-11.691.615-11.691.615s-9.328 0-11.69-.64a3.744 3.744 0 01-2.634-2.633c-.615-2.314-.615-7.187-.615-7.187s0-4.848.615-7.186a3.82 3.82 0 012.633-2.659c2.338-.615 11.691-.615 11.691-.615s9.353 0 11.69.64zm-6.892 9.822l-7.778 4.479v-8.959l7.778 4.48z" fill="#E5DDCA"/></svg>